<svg xmlns="http://www.w3.org/2000/svg" viewBox="0 0 32 32" width="32" height="32" role="img" aria-label="Watercolour star">
  <defs>
    <!-- Pigment wash: washed-out lighter centre blooming into deeper, pooled edges.
         Colours sampled from the site palette (cornflower / teal / rose / magenta). -->
    <radialGradient id="wash" cx="42%" cy="38%" r="72%">
      <stop offset="0%"  stop-color="#9FB7CC" />
      <stop offset="38%" stop-color="#6E8CA8" />
      <stop offset="72%" stop-color="#3A7F9D" />
      <stop offset="100%" stop-color="#2C6982" />
    </radialGradient>

    <!-- A second pigment that bleeds in from one petal, the way two washes meet. -->
    <radialGradient id="bleed" cx="70%" cy="74%" r="60%">
      <stop offset="0%"  stop-color="#C98B8C" stop-opacity="0.85" />
      <stop offset="55%" stop-color="#B5395B" stop-opacity="0.45" />
      <stop offset="100%" stop-color="#B5395B" stop-opacity="0" />
    </radialGradient>

    <!-- Organic, bleeding edges: warp the shape with low-frequency noise. -->
    <filter id="bleed-edge" x="-25%" y="-25%" width="150%" height="150%">
      <feTurbulence type="fractalNoise" baseFrequency="0.045 0.05" numOctaves="2" seed="7" result="warp" />
      <feDisplacementMap in="SourceGraphic" in2="warp" scale="3.2"
        xChannelSelector="R" yChannelSelector="G" />
    </filter>

    <!-- Granulation: mottled pigment settling into the paper. -->
    <filter id="granulate" x="-20%" y="-20%" width="140%" height="140%">
      <feTurbulence type="fractalNoise" baseFrequency="0.9" numOctaves="3" seed="11" result="grain" />
      <feColorMatrix in="grain" type="matrix"
        values="0 0 0 0 0  0 0 0 0 0  0 0 0 0 0  0 0 0 0.55 0" result="grainA" />
      <feComposite in="grainA" in2="SourceAlpha" operator="in" />
    </filter>

    <!-- Soft halo so the colour appears to bleed outward into the paper. -->
    <filter id="halo" x="-60%" y="-60%" width="220%" height="220%">
      <feGaussianBlur stdDeviation="1.6" />
    </filter>

    <!-- The brand four-pointed star (from Label.jsx), centred in the 32x32 frame. -->
    <path id="star"
      transform="translate(1 -1)"
      d="M15 2 C17 2,18 9,19 10 C19.7 11.3,20.7 12.3,22 13 C23 14,28 14,28 17 C28 20,23 20,22 21 C20.7 21.7,19.7 22.7,19 24 C18 25,17 32,15 32 C13 32,12 25,11 24 C10.3 22.7,9.3 21.7,8 21 C7 20,2 20,2 17 C2 14,7 14,8 13 C9.3 12.3,10.3 11.3,11 10 C12 9,13 2,15 2 Z" />
  </defs>

  <!-- 1. Bleeding halo of pigment spreading into the page. -->
  <use href="#star" fill="#3A7F9D" opacity="0.28" filter="url(#halo)" />

  <!-- 2. Main wash with warped, organic watercolour edges. -->
  <g filter="url(#bleed-edge)">
    <use href="#star" fill="url(#wash)" />
    <!-- second colour blooming in -->
    <use href="#star" fill="url(#bleed)" />
    <!-- pooled, darker pigment rim where the wash dries at the edge -->
    <use href="#star" fill="none" stroke="#234E63" stroke-width="1.1" opacity="0.55"
      filter="url(#halo)" />
  </g>

  <!-- 3. Granulation flecks settling across the shape. -->
  <use href="#star" filter="url(#granulate)" opacity="0.5" />
</svg>
